<?xml version="1.0" encoding="UTF-8"?>
<svg xmlns="http://www.w3.org/2000/svg" xmlns:xlink="http://www.w3.org/1999/xlink" width="133.19pt" height="180pt" viewBox="0 0 133.19 180" version="1.1">
<g id="surface1">
<path style=" stroke:none;fill-rule:nonzero;fill:rgb(98.799133%,99.198914%,99.198914%);fill-opacity:1;" d="M 41.277344 174.664063 C 39.761719 174.21875 38.296875 173.644531 36.925781 172.851563 C 36.628906 172.683594 36.371094 172.679688 36.046875 172.742188 C 32.558594 173.410156 29.152344 173.179688 25.855469 171.804688 C 24.902344 171.40625 24.023438 170.878906 23.269531 170.164063 C 21.632813 168.601563 21.433594 166.757813 22.691406 164.871094 C 22.808594 164.691406 22.929688 164.519531 23.089844 164.289063 C 21.621094 162.496094 21.027344 160.410156 21.234375 158.105469 C 21.441406 155.828125 22.398438 153.894531 23.988281 152.261719 C 22.601563 149.453125 22.320313 146.804688 25.054688 144.523438 C 24.804688 144.339844 24.605469 144.1875 24.398438 144.046875 C 21.230469 141.847656 18.246094 139.429688 15.757813 136.457031 C 14.621094 135.097656 13.625 133.640625 12.734375 132.105469 C 11.085938 129.253906 9.550781 126.34375 8.328125 123.273438 C 6.382813 118.390625 5.160156 113.320313 4.402344 108.128906 C 4.066406 105.832031 3.855469 103.519531 4 101.199219 C 4.058594 100.25 4.238281 99.308594 4.421875 98.371094 C 4.503906 97.957031 4.691406 97.554688 4.882813 97.175781 C 5.375 96.199219 6.148438 95.761719 7.277344 95.871094 C 8.9375 96.035156 10.503906 96.511719 12.035156 97.132813 C 14.660156 98.203125 17.066406 99.660156 19.332031 101.347656 C 19.503906 101.476563 19.675781 101.601563 19.917969 101.777344 C 21.230469 100.632813 22.695313 99.9375 24.425781 99.769531 C 24.5 99.542969 24.574219 99.320313 24.652344 99.101563 C 26.222656 94.582031 29.15625 91.347656 33.648438 89.597656 C 35.828125 88.75 38.089844 88.789063 40.359375 89.136719 C 42.335938 89.433594 44.207031 90.046875 46 91.132813 C 47.234375 89.105469 49.007813 87.75 51.171875 86.910156 C 50.933594 86.226563 50.898438 86.203125 50.253906 86.34375 C 47.089844 87.039063 43.949219 86.996094 40.835938 86.0625 C 39.847656 85.765625 38.917969 85.34375 38.042969 84.792969 C 36.257813 83.671875 35.359375 81.988281 34.957031 79.996094 C 34.425781 77.367188 34.652344 74.765625 35.300781 72.1875 C 35.523438 71.308594 35.175781 70.496094 34.421875 70.015625 C 30.007813 67.230469 27.171875 63.308594 26.003906 58.21875 C 25.484375 55.949219 25.964844 53.855469 27.320313 51.964844 C 29.09375 49.492188 31.46875 47.765625 34.199219 46.503906 C 34.976563 46.148438 35.792969 45.847656 36.625 45.652344 C 37.300781 45.492188 37.828125 45.246094 38.101563 44.480469 C 38.003906 44.234375 37.863281 43.910156 37.738281 43.578125 C 36.398438 40.039063 36.105469 36.433594 37.089844 32.753906 C 37.941406 29.558594 40.019531 27.59375 43.160156 26.683594 C 44.832031 26.199219 46.53125 26.027344 48.261719 26.117188 C 48.523438 26.132813 48.78125 26.140625 49.09375 26.15625 C 49.210938 25.308594 49.320313 24.488281 49.433594 23.667969 C 50.050781 19.238281 51.566406 15.160156 54.21875 11.535156 C 56.371094 8.605469 59.035156 6.300781 62.46875 4.996094 C 65.667969 3.78125 68.921875 3.515625 72.214844 4.617188 C 73.859375 5.167969 75.25 6.105469 76.382813 7.425781 C 76.488281 7.550781 76.601563 7.667969 76.707031 7.785156 C 77.308594 7.351563 77.859375 6.886719 78.46875 6.527344 C 81.460938 4.769531 84.519531 4.847656 87.589844 6.289063 C 90.007813 7.429688 91.84375 9.242188 93.359375 11.414063 C 94.765625 13.429688 95.726563 15.664063 96.597656 17.941406 C 97.550781 20.421875 98.359375 22.941406 98.800781 25.566406 C 98.957031 26.480469 99.023438 27.410156 99.140625 28.433594 C 99.371094 28.433594 99.648438 28.433594 99.921875 28.433594 C 103.730469 28.441406 107.441406 29.019531 111 30.414063 C 118.101563 33.195313 123.214844 38.113281 126.4375 44.988281 C 128.890625 50.222656 129.730469 55.746094 129.015625 61.476563 C 128.027344 69.441406 124.503906 76.054688 118.207031 81.089844 C 114.175781 84.316406 109.535156 86.15625 104.417969 86.785156 C 100.449219 87.273438 96.5 87.097656 92.574219 86.371094 C 92.082031 86.277344 91.734375 86.367188 91.351563 86.691406 C 89.582031 88.183594 87.492188 89.058594 85.273438 89.613281 C 83.980469 89.9375 82.652344 90.128906 81.339844 90.378906 C 81.132813 90.417969 80.921875 90.449219 80.609375 90.5 C 82.007813 93.117188 83.148438 95.777344 84.011719 98.550781 C 84.875 101.308594 85.464844 104.128906 85.902344 107.066406 C 86.183594 106.898438 86.40625 106.773438 86.621094 106.640625 C 89.132813 105.101563 91.84375 104.449219 94.777344 104.808594 C 98.164063 105.226563 100.175781 107.011719 101.039063 110.3125 C 101.113281 110.609375 101.1875 110.90625 101.265625 111.21875 C 101.660156 111.292969 102.039063 111.339844 102.402344 111.429688 C 106.625 112.460938 109.609375 114.9375 111.144531 119.035156 C 111.792969 120.757813 111.867188 122.546875 111.226563 124.300781 C 110.285156 126.871094 108.351563 128.261719 105.722656 128.773438 C 105.488281 128.820313 105.253906 128.84375 105.019531 128.878906 C 103.6875 133.585938 100.730469 136.707031 95.988281 137.875 C 91.289063 139.03125 87.222656 137.65625 83.84375 134.273438 C 82.917969 135.707031 82.003906 137.113281 81.066406 138.558594 C 81.402344 138.714844 81.683594 138.832031 81.953125 138.972656 C 87.484375 141.886719 90.597656 146.457031 91.082031 152.679688 C 91.34375 156.03125 90.214844 159.027344 88.054688 161.621094 C 87.90625 161.800781 87.75 161.980469 87.570313 162.191406 C 87.703125 162.425781 87.839844 162.644531 87.957031 162.875 C 88.699219 164.320313 88.710938 165.769531 87.925781 167.195313 C 87.273438 168.386719 86.386719 169.371094 85.226563 170.101563 C 82.972656 171.53125 80.488281 172.335938 77.882813 172.796875 C 73.714844 173.535156 69.558594 173.402344 65.410156 172.628906 C 65.125 172.574219 64.875 172.539063 64.597656 172.722656 C 62.230469 174.304688 59.582031 175.160156 56.804688 175.621094 C 51.5625 176.5 46.378906 176.152344 41.277344 174.664063 M 58.925781 179.097656 C 61.183594 178.542969 63.410156 177.945313 65.457031 176.808594 C 65.664063 176.691406 65.957031 176.679688 66.203125 176.707031 C 66.9375 176.78125 67.667969 176.90625 68.40625 176.996094 C 73.472656 177.609375 78.421875 176.988281 83.234375 175.371094 C 86.328125 174.332031 89.066406 172.722656 90.859375 169.859375 C 92.117188 167.851563 92.800781 165.714844 92.144531 163.332031 C 92.039063 162.941406 92.117188 162.660156 92.339844 162.347656 C 93.242188 161.066406 93.828125 159.640625 94.253906 158.132813 C 95.066406 155.277344 95.296875 152.429688 94.570313 149.503906 C 93.9375 146.953125 93.09375 144.519531 91.542969 142.371094 C 91.503906 142.320313 91.492188 142.246094 91.472656 142.195313 C 91.5 142.160156 91.511719 142.132813 91.527344 142.128906 C 91.621094 142.125 91.71875 142.113281 91.8125 142.125 C 94.296875 142.378906 96.6875 141.863281 98.972656 141.011719 C 103.03125 139.496094 105.929688 136.652344 107.769531 132.742188 C 107.964844 132.335938 108.199219 132.136719 108.613281 131.984375 C 111.363281 130.960938 113.433594 129.117188 114.5625 126.421875 C 115.503906 124.175781 115.8125 121.824219 115.246094 119.34375 C 114.414063 115.726563 112.535156 112.867188 109.636719 110.621094 C 108.054688 109.398438 106.355469 108.40625 104.367188 107.957031 C 103.980469 106.816406 103.378906 105.820313 102.671875 104.882813 C 101.421875 103.222656 99.785156 102.128906 97.800781 101.539063 C 97.320313 101.398438 96.824219 101.3125 96.339844 101.183594 C 94.285156 100.625 92.230469 100.683594 90.175781 101.179688 C 89.71875 101.289063 89.261719 101.386719 88.871094 101.472656 C 88.042969 98.71875 87.230469 96.035156 86.40625 93.308594 C 86.644531 93.242188 86.914063 93.164063 87.183594 93.089844 C 88.921875 92.609375 90.609375 92 92.078125 90.941406 C 92.699219 90.496094 93.289063 90.359375 93.996094 90.539063 C 94.019531 90.546875 94.042969 90.546875 94.066406 90.550781 C 98.742188 91.183594 103.378906 91.09375 108.019531 90.078125 C 113.605469 88.851563 118.488281 86.332031 122.632813 82.453125 C 129.359375 76.15625 132.578125 68.230469 133.144531 59.140625 C 133.398438 55.082031 132.613281 51.152344 131.484375 47.28125 C 130.457031 43.753906 128.734375 40.589844 126.589844 37.617188 C 123.574219 33.4375 119.703125 30.296875 115.148438 27.960938 C 111.816406 26.253906 108.214844 25.433594 104.550781 24.828125 C 103.894531 24.722656 103.230469 24.664063 102.570313 24.582031 C 102.527344 24.421875 102.503906 24.308594 102.46875 24.195313 C 101.992188 22.394531 101.589844 20.574219 101.019531 18.804688 C 99.816406 15.0625 98.316406 11.464844 95.914063 8.289063 C 94.175781 5.996094 92.042969 4.210938 89.519531 2.871094 C 88.003906 2.0625 86.328125 1.757813 84.664063 1.433594 C 83.476563 1.199219 82.28125 1.238281 81.105469 1.519531 C 79.738281 1.84375 78.34375 2.078125 77.105469 2.789063 C 76.992188 2.726563 76.90625 2.6875 76.832031 2.636719 C 74.363281 0.820313 71.488281 0.277344 68.539063 0.0351563 C 66.386719 -0.144531 64.320313 0.425781 62.265625 0.980469 C 58.898438 1.886719 56.078125 3.765625 53.667969 6.203125 C 50.035156 9.878906 47.558594 14.242188 46.402344 19.3125 C 46.179688 20.285156 45.9375 21.253906 45.714844 22.175781 C 44.46875 22.453125 43.273438 22.679688 42.097656 22.992188 C 37.859375 24.121094 34.976563 26.726563 33.605469 30.929688 C 33.414063 31.515625 33.296875 32.128906 33.140625 32.730469 C 32.457031 35.367188 32.429688 38.019531 32.953125 40.6875 C 33.074219 41.3125 33.230469 41.933594 33.363281 42.519531 C 33.308594 42.582031 33.296875 42.605469 33.277344 42.617188 C 33.058594 42.714844 32.839844 42.808594 32.625 42.910156 C 29.105469 44.609375 26.019531 46.824219 23.839844 50.152344 C 22.460938 52.261719 21.851563 54.585938 21.929688 57.078125 C 21.957031 57.90625 22.175781 58.730469 22.359375 59.542969 C 23.585938 64.871094 26.523438 69.0625 30.859375 72.324219 C 30.988281 72.421875 31.113281 72.527344 31.242188 72.632813 C 30.261719 77.242188 30.660156 81.617188 33.167969 85.648438 C 32.460938 85.90625 31.746094 86.105469 31.082031 86.417969 C 26.898438 88.382813 23.839844 91.492188 21.832031 95.636719 C 21.550781 96.21875 21.226563 96.570313 20.613281 96.78125 C 20.132813 96.945313 19.800781 96.933594 19.375 96.644531 C 16.878906 94.933594 14.183594 93.617188 11.285156 92.730469 C 9.769531 92.269531 8.238281 91.898438 6.644531 91.941406 C 4.121094 92.011719 2.269531 93.152344 1.214844 95.480469 C 0.933594 96.105469 0.703125 96.769531 0.535156 97.433594 C -0.144531 100.140625 -0.0703125 102.886719 0.175781 105.628906 C 0.453125 108.65625 1.011719 111.636719 1.6875 114.59375 C 2.554688 118.421875 3.625 122.179688 5.140625 125.804688 C 6.21875 128.386719 7.542969 130.839844 8.90625 133.28125 C 11.402344 137.746094 14.640625 141.546875 18.691406 144.664063 C 19.007813 144.910156 19.324219 145.15625 19.640625 145.398438 C 19.5 145.992188 19.398438 146.53125 19.246094 147.054688 C 18.949219 148.074219 18.9375 149.105469 19.238281 150.097656 C 19.535156 151.054688 19.46875 151.839844 18.878906 152.6875 C 18.09375 153.824219 17.90625 155.214844 17.578125 156.53125 C 17.304688 157.636719 17.148438 158.761719 17.335938 159.871094 C 17.566406 161.207031 17.914063 162.527344 18.292969 163.828125 C 18.425781 164.289063 18.503906 164.6875 18.351563 165.140625 C 17.902344 166.492188 17.917969 167.824219 18.289063 169.21875 C 18.757813 170.96875 19.738281 172.316406 21.085938 173.4375 C 22.75 174.820313 24.671875 175.664063 26.765625 176.199219 C 29.648438 176.933594 32.535156 177.269531 35.492188 176.800781 C 35.75 176.761719 36.054688 176.851563 36.300781 176.960938 C 37.785156 177.636719 39.320313 178.144531 40.898438 178.554688 C 42.957031 179.089844 50.449219 181.175781 58.925781 179.097656 "/>
<path style=" stroke:none;fill-rule:nonzero;fill:rgb(1.599121%,1.998901%,1.998901%);fill-opacity:1;" d="M 47.058594 83.730469 L 47.109375 83.5625 C 43.582031 81.460938 40.460938 78.890625 37.878906 75.484375 C 37.707031 76.761719 37.765625 77.84375 37.890625 78.933594 C 38.132813 81.007813 39.269531 82.3125 41.242188 82.96875 C 42.542969 83.402344 43.871094 83.65625 45.238281 83.726563 C 45.84375 83.753906 46.453125 83.730469 47.058594 83.730469 M 33.296875 65.148438 C 32.246094 59.703125 32.820313 54.5625 35.046875 49.59375 C 32.894531 50.664063 31.011719 52.003906 29.675781 54.003906 C 28.933594 55.125 28.765625 56.34375 29.027344 57.636719 C 29.597656 60.460938 31.042969 62.8125 32.953125 64.914063 C 33.011719 64.976563 33.097656 65.011719 33.296875 65.148438 M 67.078125 170.019531 C 67.210938 170.074219 67.273438 170.109375 67.339844 170.128906 C 67.457031 170.15625 67.574219 170.183594 67.691406 170.199219 C 71.167969 170.660156 74.636719 170.65625 78.085938 169.933594 C 80.035156 169.527344 81.902344 168.890625 83.613281 167.847656 C 84.410156 167.359375 85.015625 166.703125 85.464844 165.898438 C 85.796875 165.292969 85.847656 164.6875 85.371094 164.085938 C 85.1875 164.195313 85.023438 164.289063 84.863281 164.394531 C 83.5625 165.210938 82.167969 165.824219 80.683594 166.21875 C 77.191406 167.148438 73.625 167.328125 70.035156 167.132813 C 69.257813 167.089844 68.484375 167.003906 67.613281 166.933594 C 67.789063 168.046875 67.59375 169.039063 67.078125 170.019531 M 40.460938 42.066406 C 41.175781 41.605469 41.789063 41.148438 42.457031 40.792969 C 42.929688 40.542969 43.207031 40.238281 43.222656 39.703125 C 43.226563 39.609375 43.246094 39.515625 43.265625 39.421875 C 43.941406 35.839844 45.585938 32.816406 48.46875 30.535156 C 48.902344 30.195313 48.972656 29.835938 48.832031 29.367188 C 47.253906 28.902344 43.640625 29.378906 41.949219 30.636719 C 41.253906 31.152344 40.765625 31.808594 40.425781 32.589844 C 39.921875 33.742188 39.703125 34.960938 39.628906 36.210938 C 39.515625 38.1875 39.773438 40.113281 40.460938 42.066406 M 101.414063 114.183594 C 101.054688 117.425781 99.847656 120.207031 97.042969 122.109375 C 97.101563 122.222656 97.136719 122.3125 97.191406 122.386719 C 97.925781 123.410156 98.867188 124.214844 99.941406 124.847656 C 101.433594 125.722656 103.039063 126.207031 104.789063 126.054688 C 105.835938 125.964844 106.792969 125.625 107.574219 124.898438 C 108.800781 123.75 109.050781 122.285156 108.703125 120.75 C 108.015625 117.6875 105.988281 115.75 103.171875 114.566406 C 102.632813 114.339844 102.078125 114.082031 101.414063 114.183594 M 56.058594 99.8125 C 57.046875 100.207031 57.84375 100.652344 58.496094 101.34375 C 59.796875 102.71875 60.699219 104.332031 61.46875 106.035156 C 61.839844 106.851563 62.226563 107.664063 62.628906 108.535156 C 63.902344 105.683594 64.914063 92.128906 64.105469 89.457031 C 62.246094 89.136719 60.402344 88.820313 58.453125 88.484375 C 58.675781 92.476563 58.339844 96.316406 56.058594 99.8125 M 102.121094 128.734375 C 101.816406 128.640625 101.59375 128.5625 101.371094 128.496094 C 99.53125 127.960938 97.890625 127.070313 96.488281 125.75 C 95.707031 125.007813 94.996094 124.210938 94.417969 123.289063 C 94.136719 122.835938 94.019531 122.816406 93.535156 122.984375 C 93.398438 123.03125 93.261719 123.082031 93.136719 123.148438 C 92.035156 123.726563 91.015625 124.429688 90.089844 125.273438 C 89.882813 125.460938 89.859375 125.660156 89.855469 125.90625 C 89.847656 126.476563 89.875 127.058594 89.785156 127.617188 C 89.457031 129.585938 88.355469 131.070313 86.789063 132.246094 C 86.625 132.371094 86.464844 132.503906 86.246094 132.671875 C 89.023438 135.265625 92.226563 136.019531 95.757813 135.027344 C 98.960938 134.128906 101.058594 131.976563 102.121094 128.734375 M 64.558594 166.765625 C 64.417969 166.84375 64.292969 166.902344 64.171875 166.980469 C 62.46875 168.085938 60.605469 168.8125 58.625 169.210938 C 54.296875 170.085938 49.945313 170.164063 45.589844 169.460938 C 43.601563 169.140625 41.648438 168.695313 39.90625 167.605469 C 39.746094 167.503906 39.488281 167.480469 39.296875 167.519531 C 37.078125 167.957031 34.835938 167.972656 32.589844 167.941406 C 30.441406 167.914063 28.367188 167.507813 26.394531 166.628906 C 26.027344 166.464844 25.667969 166.28125 25.3125 166.113281 C 24.445313 167.035156 24.464844 167.574219 25.394531 168.332031 C 25.667969 168.554688 25.960938 168.785156 26.285156 168.917969 C 27.191406 169.285156 28.09375 169.6875 29.035156 169.921875 C 31.414063 170.511719 33.820313 170.488281 36.191406 169.855469 C 36.773438 169.699219 37.21875 169.785156 37.726563 170.089844 C 38.542969 170.574219 39.394531 171.035156 40.28125 171.367188 C 45.714844 173.40625 51.296875 173.796875 56.984375 172.761719 C 59.089844 172.378906 61.09375 171.679688 62.910156 170.519531 C 63.714844 170.003906 64.324219 169.308594 64.742188 168.453125 C 65.023438 167.871094 64.988281 167.308594 64.558594 166.765625 M 91.949219 110.472656 C 92.113281 110.835938 91.996094 111.175781 91.914063 111.519531 C 91.558594 113.035156 91.265625 114.5625 91.589844 116.121094 C 91.757813 116.933594 91.921875 117.769531 92.234375 118.53125 C 92.886719 120.121094 94.296875 120.507813 95.742188 119.558594 C 96.472656 119.078125 97.046875 118.441406 97.460938 117.675781 C 98.828125 115.152344 99.03125 112.558594 97.914063 109.894531 C 97.425781 108.730469 96.546875 108.03125 95.351563 107.679688 C 94.222656 107.351563 93.089844 107.382813 91.949219 107.558594 C 89.902344 107.871094 88.148438 108.773438 86.617188 110.148438 C 86.363281 110.371094 86.246094 110.625 86.285156 110.964844 C 86.335938 111.390625 86.398438 111.820313 86.398438 112.246094 C 86.410156 114.871094 86.402344 117.496094 86.402344 120.070313 C 87.214844 120.914063 88.019531 121.75 88.847656 122.609375 C 89.433594 122.179688 90.019531 121.746094 90.628906 121.296875 C 90.488281 121.070313 90.378906 120.890625 90.261719 120.714844 C 89.339844 119.375 88.917969 117.867188 88.890625 116.265625 C 88.851563 114.296875 89.601563 112.585938 90.769531 111.042969 C 91.050781 110.667969 91.425781 110.425781 91.949219 110.472656 M 44.621094 93.617188 C 44.375 93.46875 44.164063 93.324219 43.941406 93.203125 C 42.445313 92.402344 40.828125 91.992188 39.152344 91.820313 C 37.144531 91.609375 35.183594 91.773438 33.382813 92.785156 C 29.449219 94.980469 27.195313 98.292969 26.816406 102.816406 C 26.683594 104.386719 26.996094 105.851563 27.9375 107.160156 C 29.09375 108.761719 30.621094 109.625 32.617188 109.617188 C 35.023438 109.605469 36.992188 108.574219 38.722656 107 C 39.957031 105.875 40.703125 104.4375 41.257813 102.894531 C 42.136719 100.445313 42.980469 97.984375 43.851563 95.535156 C 44.078125 94.90625 44.347656 94.296875 44.621094 93.617188 M 55.121094 89.09375 C 54.960938 89.082031 54.890625 89.0625 54.820313 89.070313 C 51.773438 89.335938 49.3125 90.546875 47.886719 93.410156 C 47.820313 93.535156 47.75 93.660156 47.683594 93.789063 C 46.796875 95.460938 46.1875 97.246094 45.5625 99.023438 C 44.855469 101.027344 44.214844 103.058594 43.386719 105.011719 C 41.824219 108.699219 39 111.03125 35.160156 112.078125 C 30.773438 113.273438 26.773438 111.382813 24.808594 107.285156 C 24.308594 106.246094 23.972656 105.152344 23.753906 104.023438 C 23.675781 103.636719 23.601563 103.25 23.511719 102.804688 C 21.695313 103.605469 20.527344 104.820313 20.359375 106.789063 C 20.082031 110 21.324219 112.597656 23.820313 114.546875 C 24.84375 115.34375 26.019531 115.988281 27.207031 116.527344 C 32.394531 118.890625 37.339844 118.421875 41.929688 115.011719 C 45.296875 112.515625 47.804688 109.359375 48.992188 105.273438 C 49.453125 103.695313 49.878906 102.105469 50.285156 100.507813 C 50.742188 98.703125 51.574219 97.117188 53.253906 96.222656 C 54.230469 95.703125 54.554688 94.929688 54.71875 93.96875 C 54.746094 93.804688 54.785156 93.644531 54.8125 93.476563 C 55.070313 92.042969 55.203125 90.597656 55.121094 89.09375 M 66.753906 164.867188 C 66.929688 165.191406 67.109375 165.429688 67.195313 165.695313 C 67.347656 166.160156 67.675781 166.292969 68.113281 166.328125 C 68.96875 166.402344 69.824219 166.515625 70.679688 166.566406 C 73.605469 166.746094 76.511719 166.609375 79.363281 165.898438 C 82.414063 165.136719 84.878906 163.640625 86.359375 160.695313 C 87.890625 157.652344 88.523438 154.523438 87.667969 151.195313 C 86.875 148.101563 85.238281 145.503906 82.816406 143.410156 C 81.675781 142.421875 80.328125 141.839844 78.847656 141.421875 C 77.410156 143.003906 75.875 144.46875 74.167969 145.742188 C 72.464844 147.015625 70.628906 148.074219 68.695313 149.03125 C 69.921875 151.703125 70.585938 154.402344 70.253906 157.296875 C 69.925781 160.203125 68.726563 162.695313 66.753906 164.867188 M 74.421875 141.125 C 73.476563 141.214844 72.699219 141.328125 71.914063 141.347656 C 71.105469 141.367188 70.289063 141.339844 69.484375 141.25 C 66.570313 140.929688 63.921875 139.917969 61.671875 138.003906 C 59.566406 136.214844 58.238281 133.988281 58.042969 131.179688 C 58.023438 130.851563 57.828125 130.730469 57.613281 130.585938 C 56.390625 129.742188 55.300781 128.742188 54.324219 127.617188 C 54.207031 127.480469 54.097656 127.328125 53.976563 127.167969 C 53.722656 127.394531 53.546875 127.550781 53.371094 127.710938 C 48.105469 132.550781 41.867188 135.136719 34.765625 135.628906 C 28.738281 136.042969 22.984375 134.871094 17.496094 132.363281 C 17.269531 132.257813 17.03125 132.160156 16.800781 132.0625 C 17.085938 132.664063 17.441406 133.183594 17.832031 133.675781 C 20.621094 137.179688 24.078125 139.886719 27.890625 142.195313 C 28.753906 142.71875 29.574219 143.019531 30.570313 142.75 C 30.796875 142.6875 31.042969 142.695313 31.28125 142.6875 C 34.21875 142.625 37.15625 142.523438 40.089844 142.519531 C 41.46875 142.515625 42.851563 142.691406 44.226563 142.816406 C 44.722656 142.859375 45.234375 143.136719 45.691406 143.050781 C 46.148438 142.964844 46.539063 142.542969 46.972656 142.296875 C 50.679688 140.191406 54.597656 139.449219 58.769531 140.550781 C 61.792969 141.351563 64.25 143.070313 66.285156 145.421875 C 66.484375 145.652344 66.683594 145.882813 66.886719 146.121094 C 69.652344 144.875 72.113281 143.269531 74.421875 141.125 M 95.101563 28.730469 C 94.910156 24.980469 94.429688 21.304688 92.761719 17.886719 C 91.898438 16.109375 90.652344 14.648438 88.976563 13.585938 C 87.71875 12.785156 86.359375 12.324219 84.839844 12.457031 C 82.816406 12.632813 81.34375 13.734375 80.105469 15.242188 C 79.917969 15.46875 79.996094 15.667969 80.054688 15.910156 C 80.441406 17.507813 80.855469 19.101563 81.160156 20.714844 C 81.363281 21.789063 81.398438 22.898438 81.496094 23.992188 C 81.515625 24.210938 81.554688 24.460938 81.273438 24.578125 C 81.210938 24.511719 81.160156 24.480469 81.152344 24.445313 C 81.09375 24.144531 81.039063 23.835938 80.980469 23.53125 C 80.601563 21.484375 80.101563 19.480469 79.238281 17.570313 C 78.089844 15.039063 76.164063 13.425781 73.539063 12.605469 C 70.527344 11.660156 67.789063 12.15625 65.351563 14.191406 C 64.109375 15.230469 63.113281 16.472656 62.328125 17.882813 C 60.941406 20.371094 60.34375 23.085938 60.042969 25.882813 C 59.535156 30.585938 59.738281 35.28125 60.222656 39.96875 C 60.269531 40.386719 60.351563 40.800781 60.417969 41.230469 C 64.921875 41.203125 69.199219 41.800781 72.957031 44.566406 C 74.371094 41.871094 76.054688 39.394531 78.152344 37.214844 C 80.253906 35.03125 82.667969 33.261719 85.332031 31.871094 C 85.316406 31.761719 85.320313 31.714844 85.300781 31.675781 C 84.183594 29.300781 84.097656 26.84375 84.703125 24.332031 C 84.914063 23.464844 85.253906 22.648438 85.839844 21.964844 C 86.808594 20.824219 88.164063 20.832031 89.058594 22.039063 C 89.40625 22.507813 89.667969 23.066406 89.855469 23.625 C 90.398438 25.257813 90.429688 26.953125 90.363281 28.65625 C 90.347656 29.035156 90.3125 29.414063 90.285156 29.808594 C 91.894531 29.449219 93.445313 29.101563 95.101563 28.730469 M 64.125 115.347656 C 64.007813 115.1875 63.941406 115.089844 63.867188 115 C 62.457031 113.394531 61.3125 111.609375 60.390625 109.683594 C 59.726563 108.304688 59.085938 106.917969 58.398438 105.554688 C 57.902344 104.570313 57.289063 103.652344 56.464844 102.90625 C 55.074219 101.648438 52.957031 102.191406 52.367188 103.949219 C 51.886719 105.367188 51.800781 106.851563 51.742188 108.324219 C 51.65625 110.472656 51.726563 112.617188 51.992188 114.757813 C 52.265625 116.964844 52.621094 119.152344 53.441406 121.230469 C 54.695313 124.398438 56.582031 127.0625 59.609375 128.785156 C 59.851563 128.925781 60.011719 129.085938 60.0625 129.378906 C 60.28125 130.609375 60.753906 131.75 61.261719 132.890625 C 61.84375 134.195313 62.695313 135.25 63.804688 136.113281 C 65.511719 137.433594 67.457031 138.152344 69.582031 138.421875 C 72.46875 138.785156 75.203125 138.351563 77.71875 136.855469 C 79.453125 135.824219 80.761719 134.425781 81.417969 132.460938 C 81.894531 131.03125 81.589844 131.339844 83.066406 130.925781 C 84 130.660156 84.863281 130.265625 85.585938 129.617188 C 86.292969 128.980469 86.832031 128.222656 86.992188 127.265625 C 87.429688 124.621094 85.28125 122.265625 83.386719 121.855469 C 82.664063 121.699219 81.9375 121.566406 81.207031 121.472656 C 80.828125 121.425781 80.640625 121.269531 80.621094 120.898438 C 80.59375 120.207031 80.566406 119.519531 80.539063 118.824219 C 80.5 117.730469 80.25 116.679688 79.617188 115.785156 C 79.179688 115.167969 78.679688 114.5625 78.101563 114.085938 C 75.886719 112.25 72.636719 111.519531 69.800781 113.019531 C 67.019531 114.496094 64.652344 116.460938 62.773438 119 C 62.671875 119.140625 62.539063 119.257813 62.332031 119.488281 C 62.320313 117.75 63.125 116.53125 64.125 115.347656 M 49.167969 111.554688 C 48.546875 112.316406 48.050781 112.953125 47.53125 113.574219 C 45.410156 116.09375 42.882813 118.09375 39.859375 119.4375 C 38.164063 120.191406 36.386719 120.625 34.535156 120.742188 C 32.195313 120.890625 29.914063 120.5625 27.710938 119.746094 C 25.164063 118.804688 22.730469 117.632813 20.835938 115.617188 C 18.019531 112.609375 16.867188 109.109375 17.851563 105.023438 C 17.9375 104.675781 17.886719 104.4375 17.574219 104.230469 C 16.441406 103.480469 15.351563 102.652344 14.183594 101.960938 C 12.398438 100.898438 10.53125 99.980469 8.492188 99.480469 C 8.226563 99.417969 7.949219 99.402344 7.65625 99.359375 C 7.375 100.234375 7.296875 101.074219 7.316406 101.898438 C 7.355469 103.515625 7.414063 105.144531 7.609375 106.75 C 7.96875 109.710938 8.574219 112.628906 9.320313 115.519531 C 10.03125 118.292969 10.777344 121.058594 11.878906 123.710938 C 12.710938 125.71875 13.625 127.691406 14.929688 129.453125 C 15.203125 129.820313 15.527344 130.109375 15.941406 130.332031 C 20.335938 132.675781 25.015625 134.101563 29.980469 134.476563 C 32.480469 134.667969 34.996094 134.609375 37.480469 134.195313 C 42.472656 133.359375 47 131.441406 50.96875 128.277344 C 51.746094 127.660156 52.464844 126.964844 53.230469 126.292969 C 53.070313 126.023438 52.960938 125.84375 52.851563 125.664063 C 52.113281 124.460938 51.457031 123.21875 50.976563 121.886719 C 49.914063 118.9375 49.488281 115.875 49.28125 112.773438 C 49.257813 112.417969 49.214844 112.066406 49.167969 111.554688 M 32.484375 153.761719 C 30.4375 154.207031 28.476563 154.125 26.554688 153.25 C 25.367188 154.945313 24.558594 156.722656 24.425781 158.765625 C 24.269531 161.148438 25.082031 163.113281 26.949219 164.628906 C 28.164063 165.621094 29.582031 166.160156 31.085938 166.503906 C 33.726563 167.101563 36.398438 167.058594 39.074219 166.855469 C 39.386719 166.832031 39.671875 166.804688 39.964844 166.992188 C 41.023438 167.664063 42.210938 168.046875 43.414063 168.351563 C 47.371094 169.355469 51.382813 169.605469 55.433594 169.179688 C 57.195313 168.996094 58.921875 168.617188 60.570313 167.9375 C 61.933594 167.375 63.21875 166.664063 64.128906 165.480469 C 65.996094 163.058594 67.164063 160.34375 67.230469 157.242188 C 67.3125 153.484375 66.007813 150.195313 63.535156 147.421875 C 60.417969 143.925781 56.519531 142.664063 51.945313 143.867188 C 50.800781 144.167969 49.714844 144.703125 48.625 145.175781 C 44.78125 146.84375 41.535156 149.292969 39.007813 152.65625 C 38.894531 152.804688 38.765625 152.9375 38.570313 153.167969 C 38.675781 152.308594 38.902344 151.621094 39.210938 150.949219 C 40.125 148.949219 41.40625 147.203125 42.902344 145.605469 C 43.070313 145.429688 43.230469 145.246094 43.480469 144.964844 C 42.945313 144.910156 42.566406 144.839844 42.191406 144.839844 C 39.179688 144.832031 36.171875 144.8125 33.164063 144.855469 C 31.996094 144.871094 30.832031 145.019531 29.667969 145.144531 C 29.371094 145.175781 29.0625 145.300781 28.804688 145.457031 C 27.121094 146.492188 26.390625 148.027344 26.445313 149.980469 C 26.460938 150.648438 26.699219 151.183594 27.183594 151.625 C 27.808594 152.195313 28.523438 152.640625 29.328125 152.890625 C 30.351563 153.210938 31.394531 153.464844 32.484375 153.761719 M 65.378906 77.886719 C 67.40625 77.128906 69.074219 75.886719 70.539063 74.339844 C 70.816406 74.046875 70.949219 73.746094 70.953125 73.328125 C 70.996094 68.472656 69.902344 63.902344 67.503906 59.671875 C 62.363281 50.605469 53.429688 47.464844 44.78125 49.0625 C 42.664063 49.457031 40.707031 50.265625 39.039063 51.667969 C 37.945313 52.585938 37.171875 53.703125 36.9375 55.144531 C 36.789063 56.039063 36.585938 56.929688 36.488281 57.828125 C 35.808594 64.027344 37.371094 69.59375 41.410156 74.371094 C 43.449219 76.78125 45.800781 78.894531 48.375 80.738281 C 52.109375 83.40625 56.066406 85.640625 60.539063 86.835938 C 62.082031 87.25 63.636719 87.609375 65.246094 88.007813 C 65.269531 88.28125 65.304688 88.585938 65.320313 88.890625 C 65.359375 89.703125 65.394531 90.515625 65.421875 91.328125 C 65.558594 95.058594 65.414063 98.777344 64.960938 102.484375 C 64.667969 104.910156 64.214844 107.296875 63.621094 109.664063 C 63.570313 109.859375 63.492188 110.125 63.574219 110.273438 C 64.046875 111.09375 64.519531 111.917969 65.160156 112.570313 C 66.144531 111.964844 67.0625 111.363281 68.011719 110.820313 C 70.089844 109.636719 72.308594 109.101563 74.695313 109.574219 C 78.535156 110.332031 81.410156 112.328125 82.867188 116.085938 C 82.90625 116.179688 82.972656 116.261719 83.109375 116.476563 C 83.109375 116.078125 83.113281 115.84375 83.109375 115.605469 C 83.09375 112.566406 82.871094 109.546875 82.417969 106.539063 C 81.558594 100.855469 79.683594 95.527344 76.839844 90.535156 C 76.636719 90.175781 76.382813 89.984375 75.984375 89.867188 C 74.683594 89.492188 73.496094 88.894531 72.511719 87.945313 C 72.40625 87.84375 72.335938 87.710938 72.167969 87.476563 C 72.898438 87.476563 73.496094 87.503906 74.085938 87.472656 C 76.46875 87.34375 78.855469 87.253906 81.234375 87.046875 C 83.382813 86.859375 85.46875 86.332031 87.496094 85.59375 C 87.695313 85.519531 87.882813 85.414063 88.171875 85.277344 C 85.148438 84.269531 82.40625 82.992188 79.808594 81.40625 C 77.109375 79.757813 74.722656 77.769531 72.867188 75.183594 C 72.816406 75.117188 72.75 75.0625 72.664063 74.972656 C 70.707031 77.226563 68.269531 78.140625 65.378906 77.886719 M 77.535156 13.355469 C 77.542969 13.375 77.542969 13.394531 77.554688 13.410156 C 77.5625 13.417969 77.582031 13.414063 77.597656 13.417969 C 77.574219 13.398438 77.550781 13.382813 77.527344 13.363281 C 77.363281 12.976563 77.234375 12.570313 77.027344 12.207031 C 76.195313 10.738281 75.167969 9.433594 73.769531 8.453125 C 71.394531 6.800781 68.726563 6.550781 65.957031 6.820313 C 65.578125 6.859375 65.199219 6.941406 64.835938 7.058594 C 62.441406 7.84375 60.289063 9.050781 58.496094 10.839844 C 55.695313 13.644531 53.863281 17.007813 52.871094 20.828125 C 52.042969 24.011719 51.710938 27.257813 51.722656 30.539063 C 51.726563 31.625 51.734375 31.640625 50.816406 32.257813 C 48.863281 33.570313 47.554688 35.378906 46.695313 37.539063 C 46.195313 38.792969 45.925781 40.101563 45.851563 41.4375 C 45.820313 42.015625 45.632813 42.394531 45.074219 42.566406 C 45.003906 42.589844 44.945313 42.632813 44.878906 42.660156 C 42.292969 43.832031 40.433594 45.757813 39.105469 48.226563 C 38.667969 49.039063 38.308594 49.890625 38.082031 50.910156 C 38.289063 50.769531 38.398438 50.691406 38.511719 50.617188 C 39.109375 50.230469 39.691406 49.808594 40.316406 49.460938 C 42.707031 48.132813 45.324219 47.644531 48.019531 47.519531 C 50.007813 47.425781 51.976563 47.660156 53.921875 48.066406 C 58.011719 48.921875 61.496094 50.878906 64.457031 53.8125 C 66.820313 56.148438 68.589844 58.878906 69.875 61.921875 C 70.871094 64.285156 71.570313 66.738281 71.824219 69.300781 C 71.914063 70.171875 72.019531 71.035156 72.132813 72.058594 C 72.640625 71.398438 72.898438 70.769531 73.105469 70.128906 C 73.316406 69.472656 73.460938 68.796875 73.648438 68.082031 C 74.09375 69.324219 74.117188 71.554688 73.648438 72.914063 C 73.46875 73.425781 73.582031 73.734375 73.9375 74.109375 C 75.859375 76.113281 78.082031 77.710938 80.546875 78.960938 C 83.949219 80.691406 87.496094 82.03125 91.253906 82.710938 C 93.246094 83.074219 95.253906 83.433594 97.273438 83.5625 C 99.3125 83.6875 101.378906 83.617188 103.421875 83.472656 C 106.777344 83.230469 109.921875 82.222656 112.867188 80.59375 C 117.167969 78.214844 120.425781 74.8125 122.746094 70.496094 C 124.53125 67.164063 125.542969 63.601563 125.816406 59.84375 C 125.964844 57.820313 125.894531 55.792969 125.59375 53.769531 C 125.164063 50.910156 124.320313 48.1875 123.027344 45.609375 C 121.640625 42.855469 119.820313 40.421875 117.535156 38.335938 C 115.25 36.253906 112.695313 34.597656 109.839844 33.4375 C 105.617188 31.714844 101.210938 31.113281 96.660156 31.386719 C 94.335938 31.527344 92.0625 31.910156 89.839844 32.578125 C 85.695313 33.824219 82.039063 35.929688 78.90625 38.90625 C 77.09375 40.632813 75.699219 42.6875 74.460938 44.855469 C 74.230469 45.257813 73.988281 45.65625 73.730469 46.089844 C 73.542969 45.949219 73.429688 45.863281 73.320313 45.78125 C 71.386719 44.328125 69.28125 43.25 66.910156 42.703125 C 65.300781 42.332031 63.675781 42.128906 62.03125 41.992188 C 59.976563 41.816406 57.933594 41.894531 55.890625 42.132813 C 55.648438 42.160156 55.402344 42.167969 55.160156 42.183594 C 55.15625 42.132813 55.148438 42.085938 55.144531 42.035156 C 56.410156 41.460938 57.8125 41.515625 59.199219 41.246094 C 59.183594 40.9375 59.175781 40.65625 59.15625 40.375 C 58.980469 37.996094 58.746094 35.621094 58.652344 33.242188 C 58.582031 31.550781 58.695313 29.851563 58.742188 28.160156 C 58.800781 25.980469 59.09375 23.832031 59.632813 21.71875 C 60.425781 18.601563 61.84375 15.832031 64.265625 13.640625 C 65.414063 12.597656 66.699219 11.765625 68.199219 11.367188 C 71.210938 10.566406 74.011719 11.175781 76.621094 12.804688 C 76.925781 12.992188 77.230469 13.171875 77.535156 13.355469 M 91.722656 14.222656 C 91.777344 14.335938 91.832031 14.449219 91.890625 14.5625 C 91.941406 14.449219 91.925781 14.382813 91.886719 14.335938 C 91.84375 14.285156 91.78125 14.253906 91.730469 14.21875 C 91.683594 14.085938 91.660156 13.9375 91.585938 13.824219 C 90.667969 12.328125 89.601563 10.960938 88.179688 9.910156 C 86.550781 8.703125 84.777344 7.914063 82.683594 8.039063 C 80.796875 8.15625 79.363281 9.070313 78.132813 10.421875 C 78.59375 11.652344 79.042969 12.84375 79.511719 14.085938 C 80.070313 13.605469 80.550781 13.148438 81.074219 12.75 C 82.765625 11.460938 84.664063 11.0625 86.746094 11.460938 C 88.441406 11.78125 89.828125 12.675781 91.101563 13.792969 C 91.289063 13.957031 91.515625 14.082031 91.722656 14.222656 M 19.917969 101.777344 C 21.230469 100.632813 22.695313 99.9375 24.425781 99.769531 C 24.5 99.542969 24.574219 99.320313 24.652344 99.101563 C 26.222656 94.582031 29.15625 91.347656 33.648438 89.597656 C 35.828125 88.75 38.089844 88.789063 40.363281 89.136719 C 42.335938 89.433594 44.207031 90.046875 46 91.132813 C 47.238281 89.105469 49.007813 87.75 51.171875 86.910156 C 50.933594 86.226563 50.898438 86.203125 50.253906 86.34375 C 47.089844 87.039063 43.949219 87 40.835938 86.0625 C 39.847656 85.769531 38.917969 85.34375 38.039063 84.792969 C 36.261719 83.671875 35.359375 81.988281 34.957031 79.996094 C 34.425781 77.367188 34.652344 74.765625 35.300781 72.1875 C 35.523438 71.308594 35.175781 70.496094 34.421875 70.015625 C 30.007813 67.230469 27.171875 63.308594 26.003906 58.214844 C 25.484375 55.949219 25.964844 53.855469 27.320313 51.964844 C 29.09375 49.492188 31.46875 47.765625 34.199219 46.503906 C 34.976563 46.148438 35.792969 45.847656 36.625 45.648438 C 37.300781 45.492188 37.828125 45.246094 38.101563 44.480469 C 38.003906 44.234375 37.863281 43.910156 37.738281 43.582031 C 36.398438 40.039063 36.105469 36.433594 37.089844 32.753906 C 37.941406 29.558594 40.019531 27.589844 43.160156 26.683594 C 44.832031 26.199219 46.53125 26.023438 48.265625 26.117188 C 48.523438 26.132813 48.78125 26.140625 49.09375 26.15625 C 49.210938 25.308594 49.316406 24.488281 49.433594 23.667969 C 50.050781 19.238281 51.566406 15.160156 54.21875 11.535156 C 56.371094 8.605469 59.035156 6.300781 62.46875 4.996094 C 65.667969 3.78125 68.921875 3.515625 72.214844 4.617188 C 73.859375 5.164063 75.25 6.105469 76.382813 7.425781 C 76.488281 7.550781 76.601563 7.667969 76.707031 7.785156 C 77.308594 7.351563 77.859375 6.882813 78.46875 6.523438 C 81.457031 4.769531 84.519531 4.84375 87.585938 6.289063 C 90.007813 7.429688 91.84375 9.242188 93.359375 11.414063 C 94.765625 13.429688 95.726563 15.664063 96.597656 17.941406 C 97.550781 20.421875 98.359375 22.941406 98.800781 25.566406 C 98.957031 26.480469 99.023438 27.410156 99.140625 28.433594 C 99.371094 28.433594 99.648438 28.433594 99.921875 28.433594 C 103.730469 28.441406 107.441406 29.019531 110.996094 30.414063 C 118.101563 33.195313 123.214844 38.109375 126.4375 44.988281 C 128.890625 50.222656 129.730469 55.746094 129.015625 61.476563 C 128.027344 69.441406 124.503906 76.050781 118.207031 81.089844 C 114.175781 84.316406 109.535156 86.15625 104.417969 86.785156 C 100.449219 87.273438 96.5 87.097656 92.574219 86.371094 C 92.082031 86.277344 91.738281 86.367188 91.351563 86.691406 C 89.582031 88.183594 87.492188 89.058594 85.273438 89.613281 C 83.980469 89.9375 82.652344 90.128906 81.339844 90.378906 C 81.132813 90.417969 80.921875 90.449219 80.609375 90.5 C 82.007813 93.117188 83.148438 95.777344 84.011719 98.550781 C 84.871094 101.308594 85.464844 104.128906 85.902344 107.066406 C 86.183594 106.898438 86.40625 106.773438 86.621094 106.640625 C 89.128906 105.101563 91.84375 104.449219 94.777344 104.808594 C 98.164063 105.226563 100.175781 107.011719 101.039063 110.3125 C 101.113281 110.609375 101.1875 110.90625 101.265625 111.21875 C 101.660156 111.292969 102.039063 111.339844 102.40625 111.429688 C 106.621094 112.460938 109.609375 114.9375 111.144531 119.035156 C 111.792969 120.757813 111.867188 122.546875 111.226563 124.300781 C 110.285156 126.871094 108.351563 128.261719 105.722656 128.773438 C 105.492188 128.820313 105.253906 128.84375 105.019531 128.878906 C 103.6875 133.585938 100.730469 136.707031 95.988281 137.875 C 91.289063 139.03125 87.222656 137.65625 83.84375 134.273438 C 82.914063 135.707031 82 137.113281 81.066406 138.558594 C 81.402344 138.714844 81.683594 138.832031 81.953125 138.972656 C 87.488281 141.882813 90.597656 146.457031 91.082031 152.679688 C 91.34375 156.03125 90.210938 159.027344 88.054688 161.621094 C 87.90625 161.800781 87.75 161.980469 87.570313 162.191406 C 87.703125 162.425781 87.839844 162.644531 87.957031 162.875 C 88.699219 164.320313 88.710938 165.769531 87.925781 167.195313 C 87.273438 168.386719 86.386719 169.371094 85.226563 170.105469 C 82.972656 171.53125 80.488281 172.335938 77.882813 172.796875 C 73.714844 173.535156 69.558594 173.402344 65.410156 172.628906 C 65.121094 172.574219 64.871094 172.539063 64.597656 172.722656 C 62.230469 174.304688 59.582031 175.160156 56.804688 175.621094 C 51.5625 176.5 46.378906 176.148438 41.277344 174.664063 C 39.761719 174.21875 38.296875 173.644531 36.925781 172.851563 C 36.628906 172.683594 36.371094 172.679688 36.046875 172.742188 C 32.558594 173.410156 29.152344 173.179688 25.855469 171.804688 C 24.902344 171.40625 24.019531 170.878906 23.269531 170.164063 C 21.632813 168.601563 21.433594 166.757813 22.691406 164.871094 C 22.808594 164.691406 22.929688 164.519531 23.089844 164.289063 C 21.621094 162.496094 21.027344 160.410156 21.234375 158.105469 C 21.441406 155.828125 22.398438 153.894531 23.988281 152.261719 C 22.601563 149.453125 22.320313 146.804688 25.054688 144.523438 C 24.804688 144.339844 24.601563 144.1875 24.398438 144.046875 C 21.226563 141.847656 18.246094 139.429688 15.757813 136.457031 C 14.621094 135.097656 13.625 133.644531 12.738281 132.105469 C 11.085938 129.253906 9.550781 126.34375 8.328125 123.273438 C 6.386719 118.390625 5.160156 113.320313 4.402344 108.128906 C 4.0625 105.832031 3.855469 103.523438 4 101.199219 C 4.058594 100.25 4.242188 99.308594 4.421875 98.371094 C 4.503906 97.957031 4.691406 97.554688 4.882813 97.175781 C 5.375 96.199219 6.144531 95.757813 7.277344 95.871094 C 8.9375 96.035156 10.503906 96.507813 12.035156 97.132813 C 14.660156 98.203125 17.066406 99.660156 19.332031 101.351563 C 19.503906 101.476563 19.675781 101.601563 19.917969 101.777344 "/>
<path style=" stroke:none;fill-rule:nonzero;fill:rgb(5.899048%,64.698792%,28.999329%);fill-opacity:1;" d="M 115.988281 41.53125 C 115.765625 41.1875 115.675781 40.96875 115.519531 40.824219 C 114.667969 40.03125 112.914063 40.152344 112.253906 41.113281 C 111.425781 42.316406 111.269531 43.671875 111.699219 45.066406 C 111.792969 45.371094 111.945313 45.761719 112.359375 45.695313 C 112.730469 45.636719 112.710938 45.222656 112.769531 44.9375 C 112.894531 44.359375 112.941406 43.761719 113.078125 43.183594 C 113.304688 42.195313 113.800781 41.8125 114.828125 41.726563 C 115.152344 41.699219 115.46875 41.621094 115.988281 41.53125 M 99.945313 40.34375 C 100.355469 40.828125 100.546875 40.9375 101.324219 41.019531 C 102.339844 41.125 103.15625 41.566406 103.691406 42.425781 C 104.140625 43.152344 104.515625 43.921875 104.914063 44.679688 C 105.046875 44.929688 105.144531 45.199219 105.269531 45.457031 C 105.371094 45.65625 105.523438 45.863281 105.761719 45.742188 C 105.902344 45.675781 105.984375 45.46875 106.054688 45.304688 C 106.097656 45.203125 106.078125 45.070313 106.078125 44.949219 C 106.027344 43.089844 105.300781 41.527344 103.914063 40.300781 C 103.535156 39.960938 103.046875 39.695313 102.5625 39.53125 C 101.484375 39.167969 100.542969 39.488281 99.945313 40.34375 M 77.535156 13.355469 C 77.230469 13.171875 76.925781 12.992188 76.625 12.804688 C 74.011719 11.175781 71.210938 10.566406 68.199219 11.367188 C 66.699219 11.765625 65.414063 12.597656 64.261719 13.640625 C 61.84375 15.832031 60.425781 18.601563 59.632813 21.722656 C 59.09375 23.832031 58.800781 25.980469 58.742188 28.15625 C 58.695313 29.851563 58.585938 31.550781 58.652344 33.242188 C 58.746094 35.621094 58.984375 37.996094 59.15625 40.375 C 59.175781 40.65625 59.183594 40.9375 59.199219 41.246094 C 57.8125 41.515625 56.410156 41.460938 55.144531 42.035156 C 55.152344 42.085938 55.15625 42.136719 55.160156 42.183594 C 55.402344 42.167969 55.648438 42.164063 55.890625 42.136719 C 57.933594 41.894531 59.976563 41.816406 62.03125 41.992188 C 63.675781 42.132813 65.300781 42.332031 66.910156 42.703125 C 69.28125 43.25 71.386719 44.328125 73.320313 45.78125 C 73.429688 45.863281 73.542969 45.949219 73.730469 46.089844 C 73.988281 45.65625 74.230469 45.257813 74.460938 44.855469 C 75.699219 42.6875 77.09375 40.632813 78.90625 38.90625 C 82.039063 35.929688 85.695313 33.824219 89.839844 32.578125 C 92.0625 31.910156 94.335938 31.527344 96.660156 31.386719 C 101.210938 31.113281 105.613281 31.714844 109.839844 33.4375 C 112.695313 34.597656 115.25 36.257813 117.53125 38.335938 C 119.820313 40.421875 121.640625 42.859375 123.023438 45.613281 C 124.320313 48.1875 125.164063 50.910156 125.59375 53.769531 C 125.894531 55.792969 125.964844 57.820313 125.816406 59.84375 C 125.542969 63.601563 124.53125 67.167969 122.742188 70.496094 C 120.425781 74.816406 117.167969 78.214844 112.867188 80.59375 C 109.921875 82.21875 106.773438 83.230469 103.421875 83.472656 C 101.378906 83.617188 99.3125 83.6875 97.273438 83.5625 C 95.257813 83.433594 93.25 83.074219 91.257813 82.714844 C 87.492188 82.03125 83.949219 80.691406 80.546875 78.964844 C 78.082031 77.707031 75.859375 76.113281 73.9375 74.109375 C 73.582031 73.734375 73.46875 73.425781 73.648438 72.914063 C 74.117188 71.554688 74.09375 69.324219 73.648438 68.082031 C 73.460938 68.796875 73.316406 69.472656 73.105469 70.125 C 72.898438 70.769531 72.640625 71.398438 72.132813 72.058594 C 72.015625 71.035156 71.914063 70.171875 71.824219 69.304688 C 71.570313 66.738281 70.871094 64.285156 69.875 61.925781 C 68.589844 58.882813 66.820313 56.152344 64.457031 53.8125 C 61.496094 50.878906 58.011719 48.921875 53.921875 48.066406 C 51.976563 47.660156 50.007813 47.429688 48.019531 47.519531 C 45.324219 47.640625 42.710938 48.136719 40.316406 49.460938 C 39.691406 49.808594 39.109375 50.230469 38.511719 50.617188 C 38.398438 50.691406 38.289063 50.769531 38.082031 50.914063 C 38.308594 49.890625 38.671875 49.039063 39.105469 48.226563 C 40.433594 45.757813 42.292969 43.832031 44.878906 42.660156 C 44.945313 42.632813 45.003906 42.589844 45.074219 42.570313 C 45.632813 42.398438 45.820313 42.015625 45.851563 41.441406 C 45.925781 40.101563 46.195313 38.792969 46.695313 37.539063 C 47.554688 35.378906 48.863281 33.570313 50.816406 32.257813 C 51.734375 31.640625 51.726563 31.625 51.722656 30.539063 C 51.710938 27.257813 52.042969 24.011719 52.867188 20.832031 C 53.863281 17.011719 55.695313 13.644531 58.496094 10.839844 C 60.289063 9.054688 62.445313 7.84375 64.839844 7.058594 C 65.199219 6.941406 65.578125 6.859375 65.957031 6.820313 C 68.726563 6.550781 71.394531 6.800781 73.765625 8.457031 C 75.167969 9.433594 76.195313 10.738281 77.027344 12.207031 C 77.234375 12.570313 77.363281 12.976563 77.527344 13.363281 "/>
<path style=" stroke:none;fill-rule:nonzero;fill:rgb(98.799133%,99.198914%,99.198914%);fill-opacity:1;" d="M 65.378906 77.886719 C 68.269531 78.140625 70.707031 77.222656 72.660156 74.972656 C 72.75 75.0625 72.816406 75.113281 72.863281 75.183594 C 74.722656 77.769531 77.109375 79.757813 79.808594 81.40625 C 82.40625 82.992188 85.148438 84.269531 88.171875 85.277344 C 87.882813 85.414063 87.695313 85.519531 87.496094 85.59375 C 85.46875 86.332031 83.382813 86.859375 81.234375 87.046875 C 78.855469 87.253906 76.46875 87.34375 74.085938 87.472656 C 73.492188 87.503906 72.898438 87.476563 72.167969 87.476563 C 72.335938 87.710938 72.40625 87.84375 72.511719 87.945313 C 73.496094 88.894531 74.6875 89.488281 75.984375 89.867188 C 76.382813 89.984375 76.636719 90.179688 76.839844 90.535156 C 79.683594 95.527344 81.558594 100.855469 82.417969 106.539063 C 82.871094 109.546875 83.09375 112.570313 83.109375 115.605469 C 83.113281 115.84375 83.109375 116.078125 83.109375 116.476563 C 82.976563 116.261719 82.902344 116.179688 82.867188 116.085938 C 81.410156 112.328125 78.535156 110.332031 74.695313 109.574219 C 72.3125 109.101563 70.089844 109.636719 68.011719 110.824219 C 67.0625 111.363281 66.144531 111.964844 65.160156 112.574219 C 64.519531 111.917969 64.042969 111.09375 63.574219 110.277344 C 63.488281 110.125 63.570313 109.863281 63.617188 109.664063 C 64.214844 107.296875 64.667969 104.90625 64.960938 102.484375 C 65.414063 98.777344 65.558594 95.058594 65.421875 91.328125 C 65.394531 90.515625 65.359375 89.703125 65.320313 88.890625 C 65.304688 88.585938 65.269531 88.28125 65.246094 88.007813 C 63.636719 87.609375 62.082031 87.25 60.539063 86.835938 C 56.066406 85.640625 52.109375 83.40625 48.378906 80.738281 C 45.800781 78.894531 43.453125 76.78125 41.410156 74.367188 C 37.371094 69.59375 35.8125 64.027344 36.488281 57.828125 C 36.585938 56.929688 36.789063 56.039063 36.9375 55.144531 C 37.171875 53.703125 37.945313 52.585938 39.039063 51.667969 C 40.707031 50.261719 42.664063 49.457031 44.78125 49.0625 C 53.429688 47.464844 62.363281 50.605469 67.503906 59.671875 C 69.902344 63.902344 70.996094 68.472656 70.953125 73.328125 C 70.949219 73.742188 70.816406 74.046875 70.535156 74.339844 C 69.070313 75.886719 67.40625 77.128906 65.378906 77.886719 "/>
<path style=" stroke:none;fill-rule:nonzero;fill:rgb(95.698547%,47.799683%,12.199402%);fill-opacity:1;" d="M 32.484375 153.761719 C 31.390625 153.464844 30.351563 153.210938 29.328125 152.890625 C 28.523438 152.636719 27.808594 152.195313 27.183594 151.625 C 26.699219 151.183594 26.464844 150.644531 26.445313 149.980469 C 26.390625 148.027344 27.121094 146.492188 28.804688 145.457031 C 29.0625 145.300781 29.371094 145.175781 29.667969 145.144531 C 30.832031 145.019531 31.996094 144.871094 33.164063 144.855469 C 36.171875 144.8125 39.179688 144.832031 42.191406 144.839844 C 42.566406 144.839844 42.945313 144.910156 43.480469 144.964844 C 43.230469 145.242188 43.070313 145.429688 42.902344 145.609375 C 41.40625 147.203125 40.128906 148.949219 39.210938 150.949219 C 38.902344 151.617188 38.675781 152.308594 38.570313 153.167969 C 38.765625 152.9375 38.894531 152.804688 39.007813 152.65625 C 41.535156 149.292969 44.777344 146.84375 48.625 145.175781 C 49.714844 144.703125 50.800781 144.167969 51.945313 143.867188 C 56.519531 142.664063 60.417969 143.925781 63.535156 147.421875 C 66.007813 150.199219 67.3125 153.484375 67.234375 157.242188 C 67.164063 160.34375 65.996094 163.058594 64.128906 165.480469 C 63.21875 166.664063 61.933594 167.375 60.570313 167.9375 C 58.921875 168.617188 57.195313 168.996094 55.433594 169.179688 C 51.382813 169.609375 47.371094 169.355469 43.414063 168.351563 C 42.210938 168.046875 41.023438 167.664063 39.964844 166.988281 C 39.671875 166.804688 39.386719 166.832031 39.074219 166.859375 C 36.398438 167.058594 33.726563 167.101563 31.089844 166.503906 C 29.582031 166.160156 28.164063 165.617188 26.949219 164.628906 C 25.082031 163.113281 24.269531 161.148438 24.425781 158.765625 C 24.558594 156.722656 25.367188 154.945313 26.558594 153.25 C 28.480469 154.125 30.4375 154.207031 32.484375 153.761719 "/>
<path style=" stroke:none;fill-rule:nonzero;fill:rgb(5.899048%,64.698792%,28.999329%);fill-opacity:1;" d="M 49.167969 111.554688 C 49.214844 112.066406 49.257813 112.417969 49.28125 112.773438 C 49.488281 115.875 49.914063 118.9375 50.976563 121.886719 C 51.460938 123.21875 52.113281 124.460938 52.851563 125.664063 C 52.960938 125.84375 53.070313 126.027344 53.230469 126.289063 C 52.464844 126.964844 51.746094 127.65625 50.96875 128.28125 C 47 131.445313 42.472656 133.359375 37.480469 134.195313 C 34.996094 134.609375 32.480469 134.664063 29.980469 134.476563 C 25.015625 134.101563 20.335938 132.675781 15.941406 130.332031 C 15.527344 130.109375 15.203125 129.820313 14.929688 129.453125 C 13.625 127.691406 12.710938 125.71875 11.878906 123.710938 C 10.777344 121.058594 10.03125 118.292969 9.320313 115.519531 C 8.574219 112.628906 7.96875 109.710938 7.609375 106.75 C 7.414063 105.144531 7.355469 103.515625 7.316406 101.894531 C 7.296875 101.074219 7.375 100.234375 7.65625 99.359375 C 7.949219 99.402344 8.226563 99.417969 8.492188 99.480469 C 10.53125 99.980469 12.398438 100.898438 14.1875 101.960938 C 15.351563 102.652344 16.441406 103.480469 17.574219 104.230469 C 17.886719 104.4375 17.9375 104.675781 17.855469 105.023438 C 16.867188 109.109375 18.019531 112.613281 20.835938 115.613281 C 22.730469 117.632813 25.164063 118.804688 27.710938 119.746094 C 29.914063 120.5625 32.195313 120.890625 34.535156 120.742188 C 36.382813 120.625 38.164063 120.191406 39.859375 119.4375 C 42.882813 118.09375 45.410156 116.09375 47.53125 113.574219 C 48.050781 112.953125 48.546875 112.320313 49.167969 111.554688 "/>
<path style=" stroke:none;fill-rule:nonzero;fill:rgb(5.899048%,64.698792%,28.999329%);fill-opacity:1;" d="M 64.125 115.347656 C 63.125 116.53125 62.316406 117.75 62.332031 119.488281 C 62.539063 119.257813 62.671875 119.140625 62.773438 119 C 64.652344 116.460938 67.019531 114.496094 69.800781 113.019531 C 72.636719 111.519531 75.886719 112.246094 78.101563 114.085938 C 78.679688 114.5625 79.183594 115.164063 79.617188 115.785156 C 80.253906 116.679688 80.503906 117.730469 80.539063 118.828125 C 80.5625 119.515625 80.59375 120.207031 80.621094 120.898438 C 80.640625 121.269531 80.828125 121.425781 81.207031 121.472656 C 81.9375 121.566406 82.664063 121.699219 83.386719 121.855469 C 85.28125 122.265625 87.429688 124.621094 86.992188 127.265625 C 86.832031 128.222656 86.292969 128.980469 85.585938 129.617188 C 84.863281 130.265625 84.003906 130.660156 83.066406 130.925781 C 81.589844 131.339844 81.894531 131.03125 81.417969 132.460938 C 80.761719 134.425781 79.453125 135.828125 77.71875 136.855469 C 75.203125 138.351563 72.46875 138.785156 69.585938 138.421875 C 67.457031 138.152344 65.511719 137.433594 63.804688 136.113281 C 62.695313 135.25 61.84375 134.195313 61.261719 132.890625 C 60.753906 131.75 60.28125 130.609375 60.0625 129.378906 C 60.011719 129.085938 59.851563 128.925781 59.609375 128.785156 C 56.585938 127.0625 54.695313 124.398438 53.441406 121.230469 C 52.621094 119.152344 52.265625 116.964844 51.992188 114.757813 C 51.730469 112.617188 51.652344 110.472656 51.742188 108.324219 C 51.800781 106.851563 51.886719 105.367188 52.367188 103.949219 C 52.957031 102.191406 55.074219 101.648438 56.464844 102.90625 C 57.289063 103.652344 57.898438 104.574219 58.398438 105.554688 C 59.085938 106.917969 59.726563 108.304688 60.390625 109.683594 C 61.3125 111.609375 62.457031 113.394531 63.867188 115 C 63.941406 115.089844 64.007813 115.1875 64.125 115.347656 "/>
<path style=" stroke:none;fill-rule:nonzero;fill:rgb(98.799133%,99.198914%,99.198914%);fill-opacity:1;" d="M 71.867188 28.765625 C 71.945313 29.523438 71.984375 30.289063 72.105469 31.042969 C 72.304688 32.320313 72.679688 33.542969 73.339844 34.679688 C 74.390625 36.496094 77.25 36.535156 78.265625 34.628906 C 78.410156 34.355469 78.578125 34.089844 78.691406 33.804688 C 80.015625 30.507813 80.027344 27.195313 78.78125 23.878906 C 78.613281 23.4375 78.355469 23.027344 78.097656 22.628906 C 77.136719 21.140625 74.445313 21.160156 73.511719 22.617188 C 73.179688 23.136719 72.882813 23.6875 72.664063 24.265625 C 72.117188 25.707031 71.90625 27.21875 71.867188 28.765625 M 95.101563 28.730469 C 93.445313 29.101563 91.894531 29.449219 90.285156 29.808594 C 90.3125 29.410156 90.347656 29.035156 90.363281 28.65625 C 90.429688 26.953125 90.394531 25.257813 89.855469 23.625 C 89.667969 23.066406 89.40625 22.507813 89.058594 22.035156 C 88.160156 20.832031 86.808594 20.824219 85.839844 21.964844 C 85.253906 22.652344 84.914063 23.464844 84.703125 24.332031 C 84.097656 26.84375 84.183594 29.304688 85.304688 31.675781 C 85.320313 31.714844 85.316406 31.761719 85.332031 31.871094 C 82.667969 33.261719 80.257813 35.03125 78.152344 37.214844 C 76.054688 39.394531 74.371094 41.871094 72.957031 44.570313 C 69.199219 41.800781 64.921875 41.203125 60.417969 41.230469 C 60.351563 40.800781 60.269531 40.386719 60.222656 39.972656 C 59.738281 35.28125 59.535156 30.585938 60.042969 25.882813 C 60.34375 23.085938 60.941406 20.371094 62.328125 17.882813 C 63.113281 16.472656 64.109375 15.230469 65.351563 14.191406 C 67.789063 12.15625 70.527344 11.660156 73.539063 12.605469 C 76.160156 13.429688 78.089844 15.039063 79.234375 17.570313 C 80.101563 19.476563 80.601563 21.484375 80.980469 23.53125 C 81.035156 23.835938 81.09375 24.140625 81.152344 24.445313 C 81.160156 24.480469 81.210938 24.511719 81.273438 24.578125 C 81.554688 24.460938 81.515625 24.210938 81.496094 23.992188 C 81.398438 22.898438 81.363281 21.789063 81.160156 20.714844 C 80.855469 19.101563 80.441406 17.507813 80.054688 15.910156 C 79.996094 15.667969 79.921875 15.46875 80.105469 15.242188 C 81.34375 13.734375 82.816406 12.632813 84.839844 12.457031 C 86.359375 12.324219 87.71875 12.785156 88.976563 13.585938 C 90.652344 14.648438 91.894531 16.113281 92.761719 17.886719 C 94.429688 21.304688 94.910156 24.980469 95.101563 28.730469 "/>
<path style=" stroke:none;fill-rule:nonzero;fill:rgb(98.799133%,99.198914%,99.198914%);fill-opacity:1;" d="M 74.421875 141.125 C 72.113281 143.269531 69.652344 144.875 66.886719 146.121094 C 66.683594 145.882813 66.484375 145.652344 66.285156 145.421875 C 64.253906 143.070313 61.792969 141.351563 58.769531 140.550781 C 54.601563 139.449219 50.679688 140.191406 46.972656 142.296875 C 46.539063 142.542969 46.148438 142.964844 45.691406 143.050781 C 45.234375 143.136719 44.722656 142.859375 44.230469 142.816406 C 42.851563 142.691406 41.472656 142.515625 40.089844 142.519531 C 37.15625 142.523438 34.21875 142.625 31.28125 142.6875 C 31.042969 142.695313 30.796875 142.6875 30.570313 142.75 C 29.574219 143.019531 28.753906 142.71875 27.890625 142.195313 C 24.078125 139.886719 20.621094 137.179688 17.832031 133.675781 C 17.441406 133.183594 17.085938 132.664063 16.800781 132.0625 C 17.03125 132.160156 17.265625 132.257813 17.496094 132.363281 C 22.984375 134.871094 28.738281 136.042969 34.765625 135.628906 C 41.867188 135.136719 48.105469 132.550781 53.371094 127.710938 C 53.546875 127.550781 53.726563 127.394531 53.976563 127.167969 C 54.101563 127.328125 54.207031 127.480469 54.324219 127.617188 C 55.300781 128.742188 56.386719 129.742188 57.613281 130.585938 C 57.828125 130.730469 58.023438 130.851563 58.042969 131.179688 C 58.238281 133.988281 59.566406 136.214844 61.671875 138.003906 C 63.921875 139.917969 66.566406 140.929688 69.484375 141.25 C 70.289063 141.339844 71.105469 141.367188 71.914063 141.347656 C 72.699219 141.328125 73.480469 141.214844 74.421875 141.125 "/>
<path style=" stroke:none;fill-rule:nonzero;fill:rgb(95.698547%,47.799683%,12.199402%);fill-opacity:1;" d="M 66.753906 164.867188 C 68.726563 162.695313 69.925781 160.203125 70.257813 157.296875 C 70.585938 154.402344 69.921875 151.703125 68.691406 149.03125 C 70.632813 148.074219 72.464844 147.015625 74.167969 145.742188 C 75.878906 144.46875 77.410156 143.003906 78.851563 141.421875 C 80.328125 141.839844 81.675781 142.421875 82.816406 143.410156 C 85.238281 145.503906 86.875 148.101563 87.667969 151.195313 C 88.523438 154.523438 87.890625 157.652344 86.359375 160.695313 C 84.878906 163.640625 82.414063 165.136719 79.363281 165.898438 C 76.511719 166.609375 73.605469 166.746094 70.683594 166.566406 C 69.824219 166.515625 68.96875 166.402344 68.113281 166.328125 C 67.675781 166.292969 67.347656 166.160156 67.195313 165.695313 C 67.109375 165.429688 66.933594 165.191406 66.753906 164.867188 "/>
<path style=" stroke:none;fill-rule:nonzero;fill:rgb(98.799133%,99.198914%,99.198914%);fill-opacity:1;" d="M 55.121094 89.09375 C 55.203125 90.597656 55.070313 92.042969 54.8125 93.476563 C 54.785156 93.640625 54.746094 93.804688 54.71875 93.96875 C 54.554688 94.929688 54.234375 95.703125 53.253906 96.222656 C 51.574219 97.117188 50.742188 98.703125 50.285156 100.507813 C 49.878906 102.105469 49.453125 103.695313 48.992188 105.273438 C 47.804688 109.359375 45.296875 112.515625 41.929688 115.011719 C 37.339844 118.421875 32.394531 118.886719 27.207031 116.527344 C 26.019531 115.988281 24.84375 115.34375 23.820313 114.546875 C 21.324219 112.597656 20.082031 110 20.359375 106.789063 C 20.527344 104.824219 21.695313 103.605469 23.511719 102.804688 C 23.597656 103.25 23.675781 103.636719 23.753906 104.023438 C 23.972656 105.152344 24.308594 106.246094 24.808594 107.285156 C 26.773438 111.382813 30.773438 113.273438 35.160156 112.078125 C 39 111.03125 41.824219 108.699219 43.386719 105.011719 C 44.214844 103.058594 44.855469 101.027344 45.5625 99.023438 C 46.1875 97.246094 46.796875 95.460938 47.683594 93.789063 C 47.75 93.660156 47.820313 93.535156 47.886719 93.40625 C 49.3125 90.546875 51.773438 89.335938 54.820313 89.070313 C 54.890625 89.0625 54.960938 89.082031 55.121094 89.09375 "/>
<path style=" stroke:none;fill-rule:nonzero;fill:rgb(92.89856%,10.998535%,13.699341%);fill-opacity:1;" d="M 44.621094 93.617188 C 44.347656 94.296875 44.078125 94.90625 43.855469 95.535156 C 42.980469 97.984375 42.136719 100.445313 41.257813 102.894531 C 40.703125 104.4375 39.957031 105.875 38.722656 107 C 36.988281 108.574219 35.023438 109.605469 32.617188 109.617188 C 30.621094 109.625 29.09375 108.761719 27.9375 107.160156 C 26.996094 105.851563 26.683594 104.386719 26.816406 102.816406 C 27.195313 98.292969 29.453125 94.980469 33.382813 92.785156 C 35.183594 91.773438 37.144531 91.613281 39.15625 91.820313 C 40.828125 91.992188 42.445313 92.402344 43.941406 93.203125 C 44.164063 93.324219 44.375 93.46875 44.621094 93.617188 "/>
<path style=" stroke:none;fill-rule:nonzero;fill:rgb(5.899048%,64.698792%,28.999329%);fill-opacity:1;" d="M 91.949219 110.472656 C 91.425781 110.425781 91.050781 110.667969 90.769531 111.039063 C 89.601563 112.585938 88.851563 114.296875 88.890625 116.261719 C 88.917969 117.867188 89.339844 119.375 90.261719 120.714844 C 90.378906 120.890625 90.488281 121.070313 90.632813 121.296875 C 90.019531 121.746094 89.433594 122.179688 88.847656 122.609375 C 88.019531 121.75 87.214844 120.914063 86.402344 120.070313 C 86.402344 117.496094 86.40625 114.871094 86.398438 112.246094 C 86.398438 111.820313 86.335938 111.390625 86.285156 110.964844 C 86.246094 110.625 86.363281 110.371094 86.617188 110.144531 C 88.148438 108.773438 89.902344 107.871094 91.949219 107.558594 C 93.089844 107.382813 94.222656 107.351563 95.351563 107.679688 C 96.546875 108.03125 97.425781 108.730469 97.914063 109.890625 C 99.03125 112.558594 98.828125 115.152344 97.460938 117.675781 C 97.046875 118.441406 96.472656 119.078125 95.742188 119.558594 C 94.296875 120.507813 92.886719 120.121094 92.234375 118.53125 C 91.921875 117.765625 91.757813 116.933594 91.589844 116.121094 C 91.265625 114.5625 91.558594 113.035156 91.917969 111.519531 C 92 111.175781 92.113281 110.835938 91.949219 110.472656 "/>
<path style=" stroke:none;fill-rule:nonzero;fill:rgb(95.698547%,47.799683%,12.199402%);fill-opacity:1;" d="M 64.558594 166.765625 C 64.988281 167.308594 65.023438 167.871094 64.742188 168.453125 C 64.324219 169.308594 63.71875 170 62.910156 170.515625 C 61.09375 171.679688 59.089844 172.375 56.984375 172.761719 C 51.296875 173.796875 45.714844 173.40625 40.28125 171.367188 C 39.394531 171.035156 38.542969 170.574219 37.726563 170.089844 C 37.21875 169.785156 36.773438 169.699219 36.191406 169.855469 C 33.820313 170.488281 31.414063 170.511719 29.035156 169.921875 C 28.09375 169.6875 27.191406 169.285156 26.285156 168.917969 C 25.960938 168.785156 25.667969 168.554688 25.394531 168.332031 C 24.464844 167.574219 24.445313 167.035156 25.3125 166.113281 C 25.667969 166.28125 26.027344 166.464844 26.394531 166.628906 C 28.367188 167.507813 30.441406 167.914063 32.589844 167.941406 C 34.835938 167.972656 37.078125 167.957031 39.296875 167.519531 C 39.488281 167.480469 39.746094 167.503906 39.90625 167.605469 C 41.648438 168.695313 43.601563 169.140625 45.589844 169.460938 C 49.945313 170.164063 54.296875 170.085938 58.625 169.210938 C 60.605469 168.8125 62.46875 168.085938 64.171875 166.980469 C 64.292969 166.902344 64.417969 166.84375 64.558594 166.765625 "/>
<path style=" stroke:none;fill-rule:nonzero;fill:rgb(5.899048%,64.698792%,28.999329%);fill-opacity:1;" d="M 102.121094 128.734375 C 101.058594 131.972656 98.960938 134.132813 95.757813 135.027344 C 92.226563 136.019531 89.023438 135.265625 86.246094 132.671875 C 86.464844 132.503906 86.625 132.371094 86.789063 132.246094 C 88.355469 131.070313 89.460938 129.585938 89.78125 127.617188 C 89.875 127.054688 89.847656 126.476563 89.855469 125.90625 C 89.859375 125.660156 89.882813 125.460938 90.089844 125.273438 C 91.015625 124.429688 92.03125 123.726563 93.136719 123.148438 C 93.261719 123.082031 93.398438 123.03125 93.535156 122.984375 C 94.019531 122.816406 94.136719 122.839844 94.417969 123.289063 C 94.992188 124.210938 95.707031 125.007813 96.488281 125.75 C 97.890625 127.070313 99.53125 127.960938 101.371094 128.496094 C 101.59375 128.5625 101.816406 128.636719 102.121094 128.734375 "/>
<path style=" stroke:none;fill-rule:nonzero;fill:rgb(5.899048%,64.698792%,28.999329%);fill-opacity:1;" d="M 56.058594 99.8125 C 58.339844 96.316406 58.675781 92.476563 58.453125 88.484375 C 60.402344 88.820313 62.246094 89.136719 64.105469 89.457031 C 64.914063 92.128906 63.902344 105.683594 62.632813 108.535156 C 62.226563 107.664063 61.839844 106.851563 61.46875 106.035156 C 60.699219 104.335938 59.796875 102.71875 58.496094 101.34375 C 57.84375 100.652344 57.046875 100.207031 56.058594 99.8125 "/>
<path style=" stroke:none;fill-rule:nonzero;fill:rgb(5.899048%,64.698792%,28.999329%);fill-opacity:1;" d="M 101.414063 114.183594 C 102.078125 114.082031 102.632813 114.339844 103.171875 114.566406 C 105.984375 115.75 108.015625 117.6875 108.703125 120.75 C 109.050781 122.285156 108.800781 123.75 107.574219 124.898438 C 106.792969 125.625 105.835938 125.964844 104.789063 126.054688 C 103.035156 126.207031 101.433594 125.722656 99.941406 124.847656 C 98.863281 124.214844 97.925781 123.410156 97.191406 122.386719 C 97.136719 122.3125 97.101563 122.222656 97.042969 122.113281 C 99.847656 120.207031 101.054688 117.425781 101.414063 114.183594 "/>
<path style=" stroke:none;fill-rule:nonzero;fill:rgb(95.698547%,47.799683%,12.199402%);fill-opacity:1;" d="M 40.460938 42.066406 C 39.773438 40.113281 39.515625 38.1875 39.628906 36.210938 C 39.703125 34.960938 39.921875 33.742188 40.425781 32.589844 C 40.765625 31.808594 41.253906 31.152344 41.949219 30.636719 C 43.640625 29.378906 47.253906 28.902344 48.832031 29.367188 C 48.972656 29.832031 48.902344 30.195313 48.46875 30.535156 C 45.585938 32.816406 43.941406 35.839844 43.265625 39.421875 C 43.246094 39.515625 43.226563 39.609375 43.222656 39.703125 C 43.207031 40.238281 42.929688 40.542969 42.457031 40.792969 C 41.789063 41.148438 41.175781 41.605469 40.460938 42.066406 "/>
<path style=" stroke:none;fill-rule:nonzero;fill:rgb(95.698547%,47.799683%,12.199402%);fill-opacity:1;" d="M 67.078125 170.019531 C 67.597656 169.039063 67.789063 168.046875 67.613281 166.933594 C 68.484375 167.003906 69.257813 167.089844 70.035156 167.132813 C 73.628906 167.328125 77.1875 167.148438 80.683594 166.21875 C 82.167969 165.824219 83.5625 165.210938 84.863281 164.390625 C 85.023438 164.289063 85.1875 164.195313 85.371094 164.085938 C 85.847656 164.6875 85.800781 165.292969 85.464844 165.898438 C 85.015625 166.703125 84.410156 167.363281 83.613281 167.847656 C 81.902344 168.890625 80.035156 169.527344 78.085938 169.933594 C 74.636719 170.65625 71.171875 170.660156 67.691406 170.199219 C 67.574219 170.183594 67.457031 170.15625 67.339844 170.128906 C 67.273438 170.109375 67.210938 170.074219 67.078125 170.019531 "/>
<path style=" stroke:none;fill-rule:nonzero;fill:rgb(95.698547%,47.799683%,12.199402%);fill-opacity:1;" d="M 33.296875 65.148438 C 33.097656 65.011719 33.007813 64.976563 32.953125 64.914063 C 31.042969 62.8125 29.597656 60.460938 29.027344 57.636719 C 28.761719 56.34375 28.933594 55.125 29.675781 54.007813 C 31.011719 52.003906 32.894531 50.664063 35.046875 49.59375 C 32.820313 54.5625 32.246094 59.703125 33.296875 65.148438 "/>
<path style=" stroke:none;fill-rule:nonzero;fill:rgb(5.899048%,64.698792%,28.999329%);fill-opacity:1;" d="M 91.722656 14.222656 C 91.515625 14.078125 91.289063 13.957031 91.101563 13.792969 C 89.828125 12.679688 88.441406 11.78125 86.746094 11.460938 C 84.664063 11.0625 82.765625 11.460938 81.074219 12.75 C 80.550781 13.148438 80.070313 13.605469 79.511719 14.085938 C 79.042969 12.84375 78.59375 11.652344 78.132813 10.421875 C 79.363281 9.070313 80.796875 8.15625 82.683594 8.039063 C 84.777344 7.914063 86.550781 8.703125 88.179688 9.910156 C 89.601563 10.960938 90.667969 12.328125 91.585938 13.824219 C 91.660156 13.9375 91.683594 14.085938 91.730469 14.21875 "/>
<path style=" stroke:none;fill-rule:nonzero;fill:rgb(95.698547%,47.799683%,12.199402%);fill-opacity:1;" d="M 47.058594 83.730469 C 46.453125 83.730469 45.84375 83.753906 45.238281 83.726563 C 43.871094 83.65625 42.542969 83.402344 41.242188 82.96875 C 39.269531 82.3125 38.132813 81.007813 37.890625 78.933594 C 37.765625 77.84375 37.707031 76.761719 37.878906 75.484375 C 40.460938 78.890625 43.582031 81.460938 47.109375 83.5625 "/>
<path style=" stroke:none;fill-rule:nonzero;fill:rgb(5.899048%,64.698792%,28.999329%);fill-opacity:1;" d="M 91.730469 14.21875 C 91.78125 14.257813 91.84375 14.285156 91.886719 14.335938 C 91.925781 14.382813 91.941406 14.449219 91.890625 14.5625 C 91.832031 14.449219 91.777344 14.335938 91.722656 14.222656 "/>
<path style=" stroke:none;fill-rule:nonzero;fill:rgb(5.899048%,64.698792%,28.999329%);fill-opacity:1;" d="M 77.527344 13.363281 C 77.550781 13.382813 77.574219 13.398438 77.597656 13.417969 C 77.582031 13.414063 77.5625 13.417969 77.554688 13.410156 C 77.542969 13.394531 77.542969 13.375 77.535156 13.355469 "/>
<path style=" stroke:none;fill-rule:nonzero;fill:rgb(1.599121%,1.998901%,1.998901%);fill-opacity:1;" d="M 99.945313 40.34375 C 100.542969 39.488281 101.484375 39.167969 102.5625 39.53125 C 103.046875 39.695313 103.535156 39.960938 103.914063 40.300781 C 105.300781 41.527344 106.027344 43.089844 106.078125 44.949219 C 106.078125 45.070313 106.097656 45.203125 106.054688 45.304688 C 105.984375 45.46875 105.902344 45.675781 105.761719 45.742188 C 105.523438 45.863281 105.371094 45.65625 105.269531 45.457031 C 105.144531 45.199219 105.046875 44.929688 104.914063 44.679688 C 104.515625 43.921875 104.144531 43.152344 103.691406 42.425781 C 103.15625 41.566406 102.339844 41.125 101.328125 41.019531 C 100.546875 40.9375 100.355469 40.828125 99.945313 40.34375 "/>
<path style=" stroke:none;fill-rule:nonzero;fill:rgb(1.599121%,1.998901%,1.998901%);fill-opacity:1;" d="M 115.988281 41.53125 C 115.46875 41.621094 115.152344 41.699219 114.828125 41.726563 C 113.800781 41.8125 113.304688 42.195313 113.078125 43.183594 C 112.941406 43.761719 112.894531 44.359375 112.769531 44.9375 C 112.710938 45.222656 112.730469 45.636719 112.359375 45.695313 C 111.945313 45.761719 111.792969 45.371094 111.699219 45.066406 C 111.269531 43.671875 111.425781 42.316406 112.253906 41.113281 C 112.914063 40.152344 114.667969 40.03125 115.519531 40.824219 C 115.675781 40.96875 115.765625 41.1875 115.988281 41.53125 "/>
<path style=" stroke:none;fill-rule:nonzero;fill:rgb(1.599121%,1.998901%,1.998901%);fill-opacity:1;" d="M 71.867188 28.765625 C 71.90625 27.21875 72.117188 25.707031 72.664063 24.265625 C 72.882813 23.6875 73.179688 23.136719 73.511719 22.617188 C 74.445313 21.160156 77.136719 21.140625 78.097656 22.628906 C 78.355469 23.027344 78.613281 23.4375 78.78125 23.878906 C 80.027344 27.195313 80.015625 30.507813 78.691406 33.804688 C 78.578125 34.089844 78.410156 34.355469 78.265625 34.628906 C 77.25 36.535156 74.390625 36.496094 73.339844 34.679688 C 72.679688 33.542969 72.304688 32.320313 72.105469 31.042969 C 71.984375 30.289063 71.945313 29.523438 71.867188 28.765625 "/>
</g>
</svg>
